HIERARCHY
ROOT root
{
	OFFSET 0.000000 0.000000 0.000000
	CHANNELS 6 Xposition Yposition Zposition Zrotation Yrotation Xrotation
	JOINT lhip
	{
		OFFSET 0.058581 -0.082280 -0.017664
		CHANNELS 3 Zrotation Yrotation Xrotation
		JOINT lknee
		{
			OFFSET 0.043451 -0.386469 0.008037
			CHANNELS 3 Zrotation Yrotation Xrotation
			JOINT lankle
			{
				OFFSET -0.014790 -0.426874 -0.037428
				CHANNELS 3 Zrotation Yrotation Xrotation
				JOINT ltoe
				{
					OFFSET 0.041054 -0.060286 0.122042
					CHANNELS 3 Zrotation Yrotation Xrotation
					End Site
					{
						OFFSET 0.000000 0.000000 0.000000
					}
				}
			}
		}
	}
	JOINT rhip
	{
		OFFSET -0.060310 -0.090513 -0.013543
		CHANNELS 3 Zrotation Yrotation Xrotation
		JOINT rknee
		{
			OFFSET -0.043257 -0.383688 -0.004843
			CHANNELS 3 Zrotation Yrotation Xrotation
			JOINT rankle
			{
				OFFSET 0.019056 -0.420046 -0.034562
				CHANNELS 3 Zrotation Yrotation Xrotation
				JOINT rtoe
				{
					OFFSET -0.034840 -0.062106 0.130323
					CHANNELS 3 Zrotation Yrotation Xrotation
					End Site
					{
						OFFSET 0.000000 0.000000 0.000000
					}
				}
			}
		}
	}
	JOINT lowerback
	{
		OFFSET 0.004439 0.124404 -0.038385
		CHANNELS 3 Zrotation Yrotation Xrotation
		JOINT upperback
		{
			OFFSET 0.004488 0.137956 0.026820
			CHANNELS 3 Zrotation Yrotation Xrotation
			JOINT chest
			{
				OFFSET -0.002265 0.056032 0.002855
				CHANNELS 3 Zrotation Yrotation Xrotation
				JOINT lowerneck
				{
					OFFSET -0.013390 0.211636 -0.033468
					CHANNELS 3 Zrotation Yrotation Xrotation
					JOINT upperneck
					{
						OFFSET 0.010113 0.088937 0.050410
						CHANNELS 3 Zrotation Yrotation Xrotation
						End Site
						{
							OFFSET 0.000000 0.000000 0.000000
						}
					}
				}
				JOINT lclavicle
				{
					OFFSET 0.071702 0.114000 -0.018898
					CHANNELS 3 Zrotation Yrotation Xrotation
					JOINT lshoulder
					{
						OFFSET 0.122921 0.045205 -0.019046
						CHANNELS 3 Zrotation Yrotation Xrotation
						JOINT lelbow
						{
							OFFSET 0.255332 -0.015649 -0.022946
							CHANNELS 3 Zrotation Yrotation Xrotation
							JOINT lwrist
							{
								OFFSET 0.265709 0.012698 -0.007375
								CHANNELS 3 Zrotation Yrotation Xrotation
								End Site
								{
									OFFSET 0.000000 0.000000 0.000000
								}
							}
						}
					}
				}
				JOINT rclavicle
				{
					OFFSET -0.082954 0.112472 -0.023707
					CHANNELS 3 Zrotation Yrotation Xrotation
					JOINT rshoulder
					{
						OFFSET -0.113228 0.046853 -0.008472
						CHANNELS 3 Zrotation Yrotation Xrotation
						JOINT relbow
						{
							OFFSET -0.260127 -0.014369 -0.031269
							CHANNELS 3 Zrotation Yrotation Xrotation
							JOINT rwrist
							{
								OFFSET -0.269108 0.006794 -0.006027
								CHANNELS 3 Zrotation Yrotation Xrotation
								End Site
								{
									OFFSET 0.000000 0.000000 0.000000
								}
							}
						}
					}
				}
			}
		}
	}
}
MOTION
Frames: 16
Frame Time: 0.033333
-2.120023 0.634626 1.009453 72.168280 0.449889 87.807874 -3.428944 -8.920631 -3.580145 -9.921681 -18.850270 20.882156 -0.226307 -0.647101 -10.364898 0.000000 -0.000000 0.000000 2.197352 -0.096935 -2.757442 -3.232552 0.525125 13.365718 4.250464 -8.048357 -6.536250 0.000000 -0.000000 0.000000 -2.215591 3.228084 10.514630 0.825146 -3.620876 1.709056 0.606898 -1.397103 0.408419 -0.190891 11.882514 -7.423138 1.288843 5.577222 -3.952949 -18.439488 -15.103360 -2.133748 -46.425127 -22.988546 12.821117 12.069379 -44.939824 1.568716 1.584116 -3.947583 -9.063999 18.572034 8.475949 0.483528 54.096673 3.006754 16.363653 -15.892116 37.855764 1.259696 5.210894 0.906878 -7.881057 
-2.121707 0.630329 1.005840 78.961283 -0.143192 88.913460 -2.878575 -7.334740 -6.395150 -10.402083 -13.123073 22.766699 -0.136342 0.188629 -13.219621 0.000000 -0.000000 0.000000 1.922335 -1.918197 -2.712094 -3.601201 -1.571624 12.370305 4.070333 -9.444325 -8.357619 0.000000 -0.000000 0.000000 -2.337642 3.695495 10.766368 0.258440 -3.588416 0.724004 0.033877 -1.118781 0.768258 0.395020 8.011406 -7.651590 2.459462 1.573665 -3.826074 -18.448726 -13.881263 -2.136306 -46.224497 -22.332916 13.713928 7.888953 -45.529789 6.217916 -0.844937 -4.794498 -10.192033 18.946358 8.034722 0.004537 52.883456 2.816417 15.555977 -14.347414 34.313585 1.737520 7.346876 0.510850 -7.112451 
-2.123785 0.626174 1.002072 85.269987 -0.506027 89.664673 -1.855696 -5.947819 -8.943121 -10.709448 -9.095734 25.144896 0.608340 1.745968 -16.421692 0.000000 -0.000000 0.000000 2.210037 -3.475946 -2.478742 -4.014307 -3.240023 11.393017 3.490283 -11.302410 -10.041180 0.000000 -0.000000 0.000000 -2.465950 4.250399 10.960662 -0.095724 -3.407158 0.891563 -0.314895 -0.966978 1.098471 1.260489 4.248608 -8.249161 3.371134 -2.277145 -4.208221 -18.783578 -13.005223 -2.468890 -45.396407 -21.663564 13.722410 4.288903 -43.612709 10.260221 -2.541175 -4.426633 -9.529683 19.131749 7.954477 -0.638396 51.786813 2.670144 14.791089 -13.649501 30.398848 2.650742 8.503654 -0.953141 -4.904390 
-2.126142 0.622709 0.999261 91.018352 -0.695486 89.977224 -0.613030 -4.510180 -10.831893 -8.175553 -4.543625 27.081273 1.815900 5.363459 -18.144550 0.000000 -0.000000 0.000000 2.867312 -4.166529 -1.946569 -4.627110 -5.389634 10.482457 2.647591 -13.350678 -11.192449 0.000000 -0.000000 0.000000 -2.568235 4.334670 12.372051 -0.452688 -3.202119 0.011196 -0.364045 -0.778794 1.735434 2.126623 0.780365 -9.158247 4.448704 -5.171286 -4.341748 -18.891828 -12.397987 -2.580783 -45.257861 -20.781711 12.643300 3.522371 -38.323039 11.619675 -3.230946 -4.120302 -7.430713 19.044730 8.569425 -1.030337 51.172618 2.818521 14.189834 -13.153595 26.196670 4.464385 8.795973 -2.311287 -1.656500 
-2.128711 0.621170 0.997926 95.815703 -0.981775 90.429658 0.559237 -3.138213 -12.080072 -4.415699 -1.095922 26.747941 3.702126 9.519574 -19.896816 0.000000 -0.000000 0.000000 3.268464 -4.398484 -1.942343 -5.058832 -6.601934 10.073297 2.088790 -15.480908 -11.759603 0.000000 -0.000000 0.000000 -2.792198 4.313894 13.341145 -0.779902 -3.007283 -0.561233 -0.273117 -0.537296 2.509745 2.941738 -2.100831 -10.519894 5.242136 -7.607956 -4.231821 -19.077475 -11.928178 -2.581730 -45.516095 -20.624232 10.193465 4.514860 -28.915615 9.724176 -1.554024 -4.104001 -4.776053 19.113739 9.338148 -1.366189 50.665266 4.074163 13.585531 -12.611385 21.893266 5.733969 5.509703 -2.109243 2.587460 
-2.131021 0.621278 0.997963 99.393882 -1.124282 90.867463 1.674211 -2.491082 -11.804522 -1.685612 -0.636635 23.185496 4.459786 11.430237 -17.609502 0.000000 -0.000000 0.000000 3.610359 -4.604720 -2.385248 -5.461352 -7.432229 10.307675 1.208268 -16.974200 -11.922030 0.000000 -0.000000 0.000000 -2.810336 4.262312 14.161410 -1.132408 -2.737427 -0.715940 -0.082821 -0.467374 2.795494 3.324349 -4.401569 -11.092470 6.232809 -9.059737 -4.863610 -20.097987 -11.532271 -2.217712 -45.302632 -19.361234 6.984873 7.727978 -18.986956 4.174430 2.035921 -3.129811 -2.573224 19.060971 10.398109 -1.512536 50.597534 5.248890 12.973260 -12.779265 19.763987 6.451843 1.714242 -1.939517 5.501768 
-2.133581 0.624195 0.998359 102.585602 -1.221473 91.420346 2.220744 -2.411532 -11.260765 -0.362760 -2.897131 18.683897 3.134164 10.565315 -11.774204 0.000000 -0.000000 0.000000 3.675347 -4.752566 -3.121800 -5.798598 -8.235161 10.771684 0.130027 -17.954018 -11.856753 0.000000 -0.000000 0.000000 -2.564751 3.732039 14.936746 -1.470959 -2.702392 -0.807007 0.110208 -0.513931 2.545332 3.576414 -6.298284 -11.154194 7.030981 -9.746327 -5.017699 -21.274786 -10.398257 -1.627186 -45.972976 -17.103026 3.973490 12.993648 -11.074760 -2.795502 6.318002 -1.073113 -1.505671 19.145680 11.308062 -1.344947 50.262530 6.706088 12.221032 -13.051059 19.799409 6.114525 -1.639055 -1.402874 5.718728 
-2.135831 0.629899 0.998050 104.730209 -1.306738 92.137563 2.669660 -2.687798 -10.534778 -1.056189 -6.666043 15.689514 0.400369 8.388914 -11.448276 0.000000 -0.000000 0.000000 3.245327 -4.771885 -4.139272 -5.753553 -8.663296 11.480064 -0.428938 -18.624573 -11.685128 0.000000 -0.000000 0.000000 -2.377631 3.351720 14.295707 -1.614660 -2.375316 0.371892 0.305807 -0.661906 2.650113 4.458587 -7.582762 -11.092808 7.104641 -10.165560 -6.040317 -22.669981 -7.817809 -1.505082 -46.518402 -14.575394 1.929655 16.407448 -9.107497 -8.234608 8.803073 2.725475 -1.663273 19.515400 11.643480 -1.733657 49.291270 8.983542 11.828939 -13.263965 21.222687 4.732798 -2.266150 -1.306563 4.889556 
-2.136771 0.637087 0.997818 105.326080 -1.477306 92.959160 2.612096 -2.375246 -9.531688 -0.885829 -8.475552 12.190541 -1.305456 7.015100 -11.053063 0.000000 -0.000000 0.000000 2.397480 -4.818795 -5.299535 -5.610222 -9.048937 12.248647 0.186368 -18.338238 -12.055013 0.000000 -0.000000 0.000000 -2.347089 2.974410 14.259947 -1.456591 -1.750558 0.057751 0.133362 -0.105628 2.748833 5.274912 -7.315037 -11.353632 6.055107 -11.705712 -6.007535 -22.722483 -3.437046 -2.041256 -46.137503 -11.080762 2.527722 12.547099 -11.993276 -4.282002 6.031353 2.434247 -2.085626 20.231243 10.594433 -2.558111 48.694700 11.780570 12.316247 -13.198682 23.208109 2.744406 -1.741562 -0.911068 3.999903 
-2.137758 0.645723 0.998351 104.463162 -1.494084 93.506572 1.896549 -1.254204 -8.185626 -0.338327 -8.565753 8.861241 -1.539200 6.673490 -10.308849 0.000000 -0.000000 0.000000 1.601911 -4.445443 -6.189646 -5.485634 -9.201683 12.713683 0.918333 -18.150201 -11.553870 0.000000 -0.000000 0.000000 -2.344147 3.358743 13.881862 -1.004644 -0.875013 0.534968 0.137594 0.646391 2.932337 5.652734 -6.428651 -11.302279 5.201634 -13.307546 -7.067093 -21.746946 -1.729312 -1.259642 -45.064431 -7.023774 5.522977 4.740934 -15.083448 7.305470 2.019903 0.100111 0.410520 20.832709 10.191343 -2.922193 48.085077 14.183960 12.249775 -13.686992 26.484763 0.115423 -2.550774 0.374638 3.351391 
-2.138131 0.654262 0.999433 102.848279 -1.346810 93.929948 0.989210 0.005349 -7.558153 0.093551 -7.715952 7.316142 -0.856685 7.130752 -10.057116 0.000000 -0.000000 0.000000 0.908137 -4.534882 -6.847662 -5.256057 -9.251790 12.809164 1.583703 -17.186889 -10.936600 0.000000 -0.000000 0.000000 -2.306141 4.035156 13.400067 -0.378264 -0.417309 1.236079 0.279616 1.448455 2.889505 5.476226 -5.427418 -11.277250 4.236536 -14.861661 -7.781951 -20.363056 -1.870141 -0.294075 -45.160008 -3.125919 9.437544 -3.619796 -16.096309 21.080456 -0.855320 -1.187280 4.956101 20.922631 10.678490 -2.784775 48.366729 16.218429 12.178144 -14.578779 30.375115 -1.844469 -3.683629 0.817640 2.683049 
-2.139268 0.663735 1.000667 100.471642 -1.103506 94.049696 0.120868 0.490810 -6.920709 0.645110 -5.995392 6.575454 0.074057 7.646338 -9.975169 0.000000 -0.000000 0.000000 0.304992 -4.424062 -6.924021 -5.154135 -8.923337 12.173085 1.931666 -16.127599 -10.284926 0.000000 -0.000000 0.000000 -1.835620 4.877987 13.145141 -0.091666 0.099951 1.902826 0.418004 1.869491 2.687781 4.912196 -4.755218 -10.980815 3.279486 -15.208053 -7.851122 -19.866762 -2.488992 1.122187 -47.043672 -0.019223 12.003916 -8.631566 -15.355157 28.857242 -5.305480 -0.914495 6.283992 20.941648 11.810251 -2.122325 49.060007 18.053149 12.465889 -15.699987 33.894440 -3.256506 -3.009448 1.321716 2.306152 
-2.140286 0.673486 1.001842 98.311084 -0.967899 94.058720 -0.596923 0.311062 -6.551347 0.793276 -4.574282 6.557624 0.946653 8.237944 -10.002613 0.000000 -0.000000 0.000000 -0.219904 -4.276040 -6.726186 -5.337577 -8.733843 11.253803 1.734404 -15.238828 -9.962622 0.000000 -0.000000 0.000000 -1.281461 5.335197 12.811388 -0.037070 0.498282 2.416588 0.521955 1.932940 2.589793 4.542159 -4.153335 -10.560098 2.384032 -14.729587 -7.456916 -20.326217 -2.044888 2.350632 -50.075320 2.502391 13.040846 -10.304178 -14.355412 30.949382 -8.920023 -0.893061 3.925143 21.065061 12.531618 -1.592935 50.567731 20.060528 13.613368 -16.149356 36.259843 -3.178628 -2.143978 2.044384 1.640889 
-2.140670 0.682258 1.001676 96.323410 -0.560511 93.971279 -0.955500 0.209721 -6.017321 1.016944 -3.251652 6.445337 1.527803 8.751339 -10.447680 0.000000 -0.000000 0.000000 0.170222 -3.698509 -6.431715 -5.648484 -8.502710 10.413736 1.040111 -14.710290 -11.011956 0.000000 -0.000000 0.000000 -0.434456 5.263703 12.631805 -0.291927 0.875919 2.816386 0.607798 2.005751 2.410040 4.223856 -3.758611 -10.289418 1.900609 -13.669046 -6.973963 -21.235234 -0.613999 3.063028 -53.589900 4.547338 12.267635 -9.421112 -14.637399 27.765068 -9.014448 -0.582324 -0.003165 21.479350 12.916951 -0.959319 52.448237 21.518182 15.082495 -15.631079 38.616436 -1.823496 -2.351499 2.910034 1.533924 
-2.140753 0.689771 1.000208 95.032409 -0.267534 94.363146 -1.485408 -0.050535 -6.227847 1.456429 -2.277206 6.488191 1.995707 9.498061 -11.129532 0.000000 -0.000000 0.000000 0.944214 -2.001286 -6.589386 -5.000083 -7.161952 10.167440 2.070980 -11.613882 -13.947079 0.000000 -0.000000 0.000000 0.269472 4.639769 12.017781 -0.492408 1.234003 2.628465 0.345454 2.194449 2.557305 4.526745 -3.315352 -9.909321 1.460202 -13.440294 -6.665367 -22.177871 1.778584 2.702237 -57.132399 5.593866 11.099710 -5.950054 -14.955878 23.761991 -12.280373 0.328656 -3.937009 21.935070 11.993582 -0.833284 55.534205 22.338370 17.051216 -15.306873 40.064040 0.710312 -0.571303 2.670725 1.576364 
-2.141672 0.693725 0.999961 93.833008 -0.076501 94.002409 -1.517014 -0.353808 -5.729072 1.187977 -2.207253 6.561336 2.539012 10.673132 -11.226722 0.000000 -0.000000 0.000000 2.751688 1.446367 -6.599754 -3.284464 -2.323050 11.475255 2.411435 -8.049113 -17.000983 0.000000 -0.000000 0.000000 0.459412 3.998731 12.420200 -0.648058 2.074967 2.322846 -0.111044 2.686082 2.821791 5.365302 -2.942946 -10.363804 1.291134 -14.184278 -5.707632 -23.327100 3.741879 1.382382 -59.027227 5.309232 10.232258 -2.318047 -15.877439 18.726785 -14.415013 1.458198 -6.664771 22.865672 11.025588 -1.142940 58.245973 22.169796 19.034476 -14.456135 40.293805 3.067961 1.367432 2.312763 1.608639 
